<?xml version="1.0" standalone="no"?>
<!DOCTYPE svg PUBLIC "-//W3C//DTD SVG 20010904//EN"
 "http://www.w3.org/TR/2001/REC-SVG-20010904/DTD/svg10.dtd">
<svg version="1.0" xmlns="http://www.w3.org/2000/svg"
 width="152.000000pt" height="152.000000pt" viewBox="0 0 152.000000 152.000000"
 preserveAspectRatio="xMidYMid meet">
<metadata>
Created by potrace 1.11, written by Peter Selinger 2001-2013
</metadata>
<g transform="translate(0.000000,152.000000) scale(0.100000,-0.100000)"
fill="#000000" stroke="none">
<path d="M704 1476 c-44 -19 -71 -60 -154 -226 -40 -80 -74 -147 -76 -149 -2
-2 -85 -16 -185 -32 -196 -31 -229 -44 -266 -99 -51 -75 -24 -129 146 -291
l130 -124 -29 -165 c-16 -91 -30 -183 -30 -205 -1 -106 96 -170 195 -132 17 7
97 47 178 90 l147 78 174 -91 c109 -56 187 -90 206 -90 81 0 140 58 140 140 0
25 -12 119 -27 210 l-27 166 134 129 c73 72 139 144 146 162 31 71 4 146 -62
178 -20 9 -116 29 -215 44 -99 16 -181 30 -183 32 -2 2 -38 74 -81 159 -42 85
-87 166 -99 178 -46 51 -102 64 -162 38z m104 -103 c11 -16 56 -101 101 -190
63 -127 86 -164 103 -168 13 -2 102 -16 198 -31 96 -14 185 -32 198 -40 14 -9
22 -24 22 -42 0 -22 -28 -54 -150 -172 l-150 -145 35 -200 c19 -110 32 -209
29 -220 -18 -56 -53 -47 -254 60 l-178 95 -179 -95 c-99 -52 -191 -95 -204
-95 -59 0 -60 25 -18 273 l31 182 -151 146 c-161 156 -177 182 -128 213 12 7
103 26 202 40 99 15 190 31 202 36 16 7 50 63 112 189 50 98 96 181 103 184
31 13 58 6 76 -20z"/>
<path d="M938 610 c-182 -33 -461 -112 -501 -143 -10 -8 -22 -54 -34 -128 -28
-166 -30 -165 188 -49 l170 90 179 -95 c98 -52 183 -95 189 -95 15 0 15 -2
-20 203 -17 100 -29 194 -26 210 4 33 4 33 -145 7z"/>
</g>
</svg>
